<svg width="34" height="34" viewBox="0 0 34 34" fill="none" xmlns="http://www.w3.org/2000/svg">
<g id="ant-design:cloud-upload-outlined">
<path id="Vector" d="M17.2091 15.2403C17.1842 15.2086 17.1525 15.1829 17.1162 15.1653C17.08 15.1476 17.0402 15.1384 16.9999 15.1384C16.9596 15.1384 16.9198 15.1476 16.8836 15.1653C16.8473 15.1829 16.8156 15.2086 16.7907 15.2403L13.072 19.9452C13.0413 19.9844 13.0223 20.0314 13.0171 20.0808C13.0119 20.1303 13.0207 20.1802 13.0425 20.2249C13.0643 20.2695 13.0983 20.3072 13.1405 20.3335C13.1827 20.3598 13.2314 20.3737 13.2812 20.3735H15.7349V28.422C15.7349 28.5681 15.8544 28.6876 16.0005 28.6876H17.9927C18.1388 28.6876 18.2583 28.5681 18.2583 28.422V20.3769H20.7187C20.9411 20.3769 21.064 20.1212 20.9278 19.9485L17.2091 15.2403Z" fill="black"/>
<path id="Vector_2" d="M26.941 12.1756C25.4203 8.16465 21.5455 5.3125 17.0066 5.3125C12.4678 5.3125 8.59297 8.16133 7.07227 12.1723C4.22676 12.9193 2.125 15.5125 2.125 18.5938C2.125 22.2627 5.09668 25.2344 8.7623 25.2344H10.0938C10.2398 25.2344 10.3594 25.1148 10.3594 24.9688V22.9766C10.3594 22.8305 10.2398 22.7109 10.0938 22.7109H8.7623C7.64336 22.7109 6.59082 22.266 5.80723 21.4592C5.02695 20.6557 4.61191 19.5732 4.64844 18.451C4.67832 17.5744 4.97715 16.751 5.51836 16.057C6.07285 15.3498 6.8498 14.8352 7.71309 14.6061L8.97148 14.2773L9.43301 13.0621C9.71855 12.3051 10.117 11.5979 10.6184 10.957C11.1133 10.3219 11.6996 9.76354 12.3582 9.3002C13.7229 8.34063 15.3299 7.83262 17.0066 7.83262C18.6834 7.83262 20.2904 8.34063 21.6551 9.3002C22.3158 9.76504 22.9002 10.3229 23.3949 10.957C23.8963 11.5979 24.2947 12.3084 24.5803 13.0621L25.0385 14.274L26.2936 14.6061C28.0932 15.0908 29.3516 16.7277 29.3516 18.5938C29.3516 19.6928 28.9232 20.7287 28.1463 21.5057C27.7653 21.8889 27.312 22.1928 26.8127 22.3997C26.3135 22.6066 25.7781 22.7124 25.2377 22.7109H23.9062C23.7602 22.7109 23.6406 22.8305 23.6406 22.9766V24.9688C23.6406 25.1148 23.7602 25.2344 23.9062 25.2344H25.2377C28.9033 25.2344 31.875 22.2627 31.875 18.5938C31.875 15.5158 29.7799 12.926 26.941 12.1756Z" fill="black"/>
</g>
</svg>
