<svg width="38" height="38" viewBox="0 0 38 38" fill="none" xmlns="http://www.w3.org/2000/svg">
<g id="ant-design:file-outlined">
<path id="Vector" d="M31.7137 10.7098L23.7277 2.72383C23.5051 2.50117 23.2045 2.375 22.8891 2.375H7.125C6.46816 2.375 5.9375 2.90566 5.9375 3.5625V34.4375C5.9375 35.0943 6.46816 35.625 7.125 35.625H30.875C31.5318 35.625 32.0625 35.0943 32.0625 34.4375V11.5521C32.0625 11.2367 31.9363 10.9324 31.7137 10.7098ZM29.3238 12.0977H22.3398V5.11367L29.3238 12.0977ZM29.3906 32.9531H8.60938V5.04688H19.8164V13.0625C19.8164 13.4759 19.9806 13.8723 20.2729 14.1646C20.5652 14.4569 20.9616 14.6211 21.375 14.6211H29.3906V32.9531Z" fill="#333333"/>
</g>
</svg>
