<svg width="25" height="25" viewBox="0 0 25 25" fill="none" xmlns="http://www.w3.org/2000/svg">
<g id="bx:bxs-lock-alt" opacity="0.3">
<path id="Vector" d="M20.017 12.5497C20.017 11.4467 19.12 10.5497 18.017 10.5497H17.017V7.54974C17.017 4.79274 14.774 2.54974 12.017 2.54974C9.25997 2.54974 7.01697 4.79274 7.01697 7.54974V10.5497H6.01697C4.91397 10.5497 4.01697 11.4467 4.01697 12.5497V20.5497C4.01697 21.6527 4.91397 22.5497 6.01697 22.5497H18.017C19.12 22.5497 20.017 21.6527 20.017 20.5497V12.5497ZM9.01697 7.54974C9.01697 5.89574 10.363 4.54974 12.017 4.54974C13.671 4.54974 15.017 5.89574 15.017 7.54974V10.5497H9.01697V7.54974Z" fill="#333333"/>
</g>
</svg>
